<svg width="420" height="420" viewBox="0 0 420 420" fill="none" xmlns="http://www.w3.org/2000/svg" role="img" aria-labelledby="title desc">
  <title id="title">Marrow logo</title>
  <desc id="desc">A warm geometric emblem with a stylized M and connected nodes.</desc>
  <defs>
    <linearGradient id="shell" x1="90" y1="82" x2="330" y2="338" gradientUnits="userSpaceOnUse">
      <stop stop-color="#FFF5ED"/>
      <stop offset="1" stop-color="#FFD8C8"/>
    </linearGradient>
    <linearGradient id="core" x1="122" y1="124" x2="301" y2="289" gradientUnits="userSpaceOnUse">
      <stop stop-color="#FF7A59"/>
      <stop offset="1" stop-color="#B93A2F"/>
    </linearGradient>
    <linearGradient id="glow" x1="210" y1="104" x2="210" y2="316" gradientUnits="userSpaceOnUse">
      <stop stop-color="#FFF5ED" stop-opacity="0.92"/>
      <stop offset="1" stop-color="#FFF5ED" stop-opacity="0.12"/>
    </linearGradient>
    <filter id="shadow" x="48" y="44" width="324" height="332" filterUnits="userSpaceOnUse" color-interpolation-filters="sRGB">
      <feFlood flood-opacity="0" result="BackgroundImageFix"/>
      <feColorMatrix in="SourceAlpha" type="matrix" values="0 0 0 0 0 0 0 0 0 0 0 0 0 0 0 0 0 0 127 0" result="hardAlpha"/>
      <feOffset dy="10"/>
      <feGaussianBlur stdDeviation="12"/>
      <feComposite in2="hardAlpha" operator="out"/>
      <feColorMatrix type="matrix" values="0 0 0 0 0.2875 0 0 0 0 0.133333 0 0 0 0 0.105882 0 0 0 0.16 0"/>
      <feBlend mode="normal" in2="BackgroundImageFix" result="effect1_dropShadow_1_6"/>
      <feBlend mode="normal" in="SourceGraphic" in2="effect1_dropShadow_1_6" result="shape"/>
    </filter>
  </defs>
  <g filter="url(#shadow)">
    <path d="M210 56C277.379 56 334 112.621 334 180V240C334 307.379 277.379 364 210 364C142.621 364 86 307.379 86 240V180C86 112.621 142.621 56 210 56Z" fill="url(#shell)"/>
    <path d="M210 56C277.379 56 334 112.621 334 180V240C334 307.379 277.379 364 210 364C142.621 364 86 307.379 86 240V180C86 112.621 142.621 56 210 56Z" stroke="#24313A" stroke-width="14"/>
    <path d="M210 104C248.108 104 279 134.892 279 173V248C279 286.108 248.108 317 210 317C171.892 317 141 286.108 141 248V173C141 134.892 171.892 104 210 104Z" fill="url(#glow)"/>
    <path d="M128 287V145L179 145L210 196L241 145H292V287" stroke="url(#core)" stroke-width="28" stroke-linecap="round" stroke-linejoin="round"/>
    <path d="M128 145L210 257L292 145" stroke="#24313A" stroke-width="12" stroke-linecap="round" stroke-linejoin="round" opacity="0.88"/>
    <circle cx="128" cy="145" r="20" fill="#24313A"/>
    <circle cx="292" cy="145" r="20" fill="#24313A"/>
    <circle cx="210" cy="257" r="23" fill="#24313A"/>
    <circle cx="128" cy="287" r="16" fill="#F7B267"/>
    <circle cx="292" cy="287" r="16" fill="#F7B267"/>
    <circle cx="210" cy="257" r="11" fill="#F7B267"/>
  </g>
</svg>
